# xmcd
# 
# Track frame offsets:
#     150
#     19245
#     36165
#     51388
#     74580
#     93753
#     113589
#     132714
#     150666
#     177079
#     191894
#     209012
# 
# Disc length: 2995
# 
# Revision: 2
# Processed by: cddbd v1.5.2PL0 Copyright (c) Steve Scherf et al.
# Submitted via: fre:ac v1.0.31
# 
DISCID=b10bb10c
DTITLE=Guitar Shorty - Bare Knuckle
DYEAR=2010
DGENRE=Blues
TTITLE0=Please Mr. President
TTITLE1=Too Hard To Love You
TTITLE2=The Sting
TTITLE3=Slow Burn
TTITLE4=True Lies
TTITLE5=Texas Women
TTITLE6=Too Late
TTITLE7=Neverland
TTITLE8=Betrayed
TTITLE9=Get Off
TTITLE10=Bad Memory
TTITLE11=Temporary Man
EXTD=YEAR: 2010
EXTT0=
EXTT1=
EXTT2=
EXTT3=
EXTT4=
EXTT5=
EXTT6=
EXTT7=
EXTT8=
EXTT9=
EXTT10=
EXTT11=
PLAYORDER=
